<svg width="41" height="41" viewBox="0 0 41 41" fill="none" xmlns="http://www.w3.org/2000/svg">
<path d="M14.5 2.53516H6.5C5.43913 2.53516 4.42172 2.95658 3.67157 3.70673C2.92143 4.45687 2.5 5.47429 2.5 6.53516V14.5352M14.5 2.53516H34.5C35.5609 2.53516 36.5783 2.95658 37.3284 3.70673C38.0786 4.45687 38.5 5.47429 38.5 6.53516V14.5352M14.5 2.53516V38.5352M2.5 14.5352V34.5352C2.5 35.596 2.92143 36.6134 3.67157 37.3636C4.42172 38.1137 5.43913 38.5352 6.5 38.5352H14.5M2.5 14.5352H38.5M38.5 14.5352V34.5352C38.5 35.596 38.0786 36.6134 37.3284 37.3636C36.5783 38.1137 35.5609 38.5352 34.5 38.5352H14.5" stroke="white" stroke-width="4" stroke-linecap="round" stroke-linejoin="round"/>
</svg>
