<svg width="18" height="9" viewBox="0 0 18 9" fill="none" xmlns="http://www.w3.org/2000/svg">
<path d="M4.67578 7.02832V8H1.10645V7.02832H4.67578ZM1.44824 0.890625V8H0.222656V0.890625H1.44824ZM5.28125 5.41699V5.30469C5.28125 4.92383 5.33659 4.57064 5.44727 4.24512C5.55794 3.91634 5.71745 3.63151 5.92578 3.39062C6.13737 3.14648 6.39453 2.95768 6.69727 2.82422C7.00326 2.6875 7.34831 2.61914 7.73242 2.61914C8.11979 2.61914 8.46484 2.6875 8.76758 2.82422C9.07357 2.95768 9.33236 3.14648 9.54395 3.39062C9.75553 3.63151 9.91667 3.91634 10.0273 4.24512C10.138 4.57064 10.1934 4.92383 10.1934 5.30469V5.41699C10.1934 5.79785 10.138 6.15104 10.0273 6.47656C9.91667 6.80208 9.75553 7.08691 9.54395 7.33105C9.33236 7.57194 9.0752 7.76074 8.77246 7.89746C8.46973 8.03092 8.1263 8.09766 7.74219 8.09766C7.35482 8.09766 7.00814 8.03092 6.70215 7.89746C6.39941 7.76074 6.14225 7.57194 5.93066 7.33105C5.71908 7.08691 5.55794 6.80208 5.44727 6.47656C5.33659 6.15104 5.28125 5.79785 5.28125 5.41699ZM6.45801 5.30469V5.41699C6.45801 5.65462 6.48242 5.87923 6.53125 6.09082C6.58008 6.30241 6.65658 6.48796 6.76074 6.64746C6.86491 6.80697 6.99837 6.93229 7.16113 7.02344C7.32389 7.11458 7.51758 7.16016 7.74219 7.16016C7.96029 7.16016 8.14909 7.11458 8.30859 7.02344C8.47135 6.93229 8.60482 6.80697 8.70898 6.64746C8.81315 6.48796 8.88965 6.30241 8.93848 6.09082C8.99056 5.87923 9.0166 5.65462 9.0166 5.41699V5.30469C9.0166 5.07031 8.99056 4.84896 8.93848 4.64062C8.88965 4.42904 8.81152 4.24186 8.7041 4.0791C8.59993 3.91634 8.46647 3.78939 8.30371 3.69824C8.14421 3.60384 7.95378 3.55664 7.73242 3.55664C7.51107 3.55664 7.31901 3.60384 7.15625 3.69824C6.99674 3.78939 6.86491 3.91634 6.76074 4.0791C6.65658 4.24186 6.58008 4.42904 6.53125 4.64062C6.48242 4.84896 6.45801 5.07031 6.45801 5.30469ZM12.6152 6.82812L13.8359 2.7168H14.5879L14.3828 3.94727L13.1523 8H12.4785L12.6152 6.82812ZM11.8975 2.7168L12.8496 6.84766L12.9277 8H12.1758L10.7451 2.7168H11.8975ZM15.7305 6.79883L16.6533 2.7168H17.8008L16.375 8H15.623L15.7305 6.79883ZM14.7148 2.7168L15.9209 6.7793L16.0723 8H15.3984L14.1533 3.94238L13.9482 2.7168H14.7148Z" fill="#EB9961"/>
</svg>
